<svg xmlns="http://www.w3.org/2000/svg" width="53.5" height="53.5"><defs><style>.a{fill:#8395a7}</style></defs><path class="a" d="M50.8 36.5a2 2 0 002-2V12.9a8.2 8.2 0 00-8-8.2H42v-2a2 2 0 10-4.1 0v2h-9.3v-2a2 2 0 10-4 0v2h-9.3v-2a2 2 0 10-4 0v2H8.7A8.2 8.2 0 00.6 13v31.8A8.2 8.2 0 008.8 53h36a8.2 8.2 0 008-8.2 2 2 0 00-4 0 4 4 0 01-4 4h-36a4 4 0 01-4-4V13a4 4 0 014-4.1h2.5v2a2 2 0 004.1 0v-2h9.2v2a2 2 0 004 0v-2H38v2a2 2 0 004 0v-2h2.7a4 4 0 014 4v21.7a2 2 0 002.1 2z"/><path class="a" d="M44.8 53.5H8.7A8.7 8.7 0 010 44.8v-32A8.7 8.7 0 018.7 4h2V2.5a2.5 2.5 0 115.1 0v1.6h8.3V2.5a2.5 2.5 0 115 0v1.6h8.5V2.5a2.5 2.5 0 115 0v1.6h2.2a8.7 8.7 0 018.7 8.7v21.7a2.5 2.5 0 11-5 0V12.8a3.6 3.6 0 00-3.7-3.6h-2.2v1.5a2.5 2.5 0 01-5 0V9.2h-8.4v1.5a2.5 2.5 0 01-5 0V9.2h-8.4v1.5a2.5 2.5 0 01-5 0V9.2H8.7A3.6 3.6 0 005 12.8v32a3.6 3.6 0 003.6 3.6h36.1a3.6 3.6 0 003.6-3.6 2.5 2.5 0 015.1 0 8.7 8.7 0 01-8.7 8.7zM8.7 5.1A7.7 7.7 0 001 12.8v32a7.7 7.7 0 007.7 7.7h36.1a7.7 7.7 0 007.7-7.7 1.6 1.6 0 00-3.1 0 4.6 4.6 0 01-4.6 4.6H8.7A4.6 4.6 0 014 44.8v-32a4.6 4.6 0 014.6-4.6h3v2.5a1.6 1.6 0 003.2 0V8.2H25v2.5a1.6 1.6 0 003.1 0V8.2h10.3v2.5a1.6 1.6 0 003.2 0V8.2h3.1a4.6 4.6 0 014.6 4.6v21.7a1.6 1.6 0 103.1 0V12.8A7.7 7.7 0 0044.8 5h-3.1V2.5a1.6 1.6 0 00-3.2 0v2.6H28.2V2.5a1.6 1.6 0 00-3.1 0v2.6H14.9V2.5a1.6 1.6 0 10-3.2 0v2.6z"/></svg>