<svg xmlns="http://www.w3.org/2000/svg" width="110.847" height="26.443" xmlns:v="https://vecta.io/nano"><path d="M69.377 26.346V12c0-5.757-4.586-12-11.319-12S46.642 6.147 46.642 11.709v14.637h4.781V11.807c0-3.318 2.927-7.221 6.635-7.221 3.9 0 6.538 3.9 6.538 7.513v14.247zm15.71-21.76a8.32 8.32 0 0 1 8 6.83H77.183a8.14 8.14 0 0 1 7.904-6.83zm6.538 13.758a8.08 8.08 0 0 1-6.538 3.513 8.23 8.23 0 0 1-7.709-5.952h19.711a23.99 23.99 0 0 0 .2-2.732C97.284 5.855 91.722 0 84.989 0c-6.83 0-12.392 5.855-12.392 13.173.1 7.318 5.659 13.173 12.49 13.173a12.4 12.4 0 0 0 10.733-6.635zm-60.693 3.514a8.32 8.32 0 0 1-8.1-8.587 8.32 8.32 0 0 1 8.1-8.587c4.6.153 8.216 3.986 8.1 8.587a8.32 8.32 0 0 1-8.1 8.587zm8.1-18.54h0a12.05 12.05 0 0 0-8.1-3.22c-6.83 0-12.392 5.855-12.392 13.173 0 7.221 5.562 13.075 12.392 13.075a12.05 12.05 0 0 0 8.1-3.22v3.22h4.2V13.173a13.32 13.32 0 0 0-4.201-9.855zM4.2.098H0v26.248h4.2z" fill="#fff"/><path d="M101.383 0l9.465 13.173-9.465 13.173a3 3 0 0 1-2.244-4.781l6.05-8.392-6.05-8.392a3.15 3.15 0 0 1-.586-1.756A2.94 2.94 0 0 1 101.383 0z" fill="#f9b76b"/><path d="M14.637 0L5.172 13.173l9.465 13.27a3 3 0 0 0 2.244-4.781l-6.05-8.392 6.05-8.392a3.15 3.15 0 0 0 .585-1.756c.043-.79-.232-1.565-.764-2.151S15.427.035 14.637 0z" fill="#fff"/></svg>